<svg width="42" height="38" viewBox="0 0 38 38" fill="none" xmlns="http://www.w3.org/2000/svg">
<rect x="2" y="0.5" width="36.8283" height="36.8283" rx="18.4141" fill="white" stroke="#DADADA"/>
<rect x="8" y="6" width="25" height="25" rx="12.5" fill="#30BCED"/>
<path d="M13.8495 16.7042C13.5971 17.0239 13.8495 17.5454 13.8495 17.5454L15.6351 22.1209C15.6351 22.1209 15.7954 22.4723 15.9522 22.6592C16.1079 22.8449 16.1877 22.962 16.4232 23.063C16.6587 23.1639 24.4305 23.1639 24.6492 23.063C24.8679 22.962 24.993 22.8602 25.137 22.6592C25.2692 22.4748 25.3894 22.1209 25.3894 22.1209L27.1388 17.5454C27.1388 17.5454 27.408 17.007 27.1388 16.7042C26.8697 16.4015 26.2641 16.7042 26.2641 16.7042L23.1016 18.7061L21.1839 14.2819C21.1839 14.2819 20.9988 13.8613 20.511 13.8613C20.0231 13.8613 19.8213 14.2819 19.8213 14.2819L17.8531 18.7061L14.6569 16.7042C14.6569 16.7042 14.1018 16.3846 13.8495 16.7042Z" fill="white"/>
<!--<path d="M47.9949 16.144H44.8629L41.8029 19.438V11.968H39.4089V25H41.8029V22.66L42.7929 21.616L45.1329 25H48.0669L44.4489 19.87L47.9949 16.144ZM54.4855 16.144L52.5595 21.832L50.9215 16.144H48.4015L51.2275 25H53.6575L55.6915 18.952L57.7615 25H60.1555L62.9275 16.144H60.5515L58.9135 21.85L57.0055 16.144H54.4855ZM65.94 19.564C65.994 18.754 66.678 17.818 67.92 17.818C69.288 17.818 69.864 18.682 69.9 19.564H65.94ZM70.134 21.868C69.846 22.66 69.234 23.218 68.118 23.218C66.93 23.218 65.94 22.372 65.886 21.202H72.222C72.222 21.166 72.258 20.806 72.258 20.464C72.258 17.62 70.62 15.874 67.884 15.874C65.616 15.874 63.528 17.71 63.528 20.536C63.528 23.524 65.67 25.27 68.1 25.27C70.278 25.27 71.682 23.992 72.132 22.462L70.134 21.868ZM75.8892 19.564C75.9432 18.754 76.6272 17.818 77.8692 17.818C79.2372 17.818 79.8132 18.682 79.8492 19.564H75.8892ZM80.0832 21.868C79.7952 22.66 79.1832 23.218 78.0672 23.218C76.8792 23.218 75.8892 22.372 75.8352 21.202H82.1712C82.1712 21.166 82.2072 20.806 82.2072 20.464C82.2072 17.62 80.5692 15.874 77.8332 15.874C75.5652 15.874 73.4772 17.71 73.4772 20.536C73.4772 23.524 75.6192 25.27 78.0492 25.27C80.2272 25.27 81.6312 23.992 82.0812 22.462L80.0832 21.868ZM92.6785 16.144H89.5465L86.4865 19.438V11.968H84.0925V25H86.4865V22.66L87.4765 21.616L89.8165 25H92.7505L89.1325 19.87L92.6785 16.144Z" fill="black"/>-->
</svg>
